<svg width="38" height="38" viewBox="0 0 38 38" fill="none" xmlns="http://www.w3.org/2000/svg">
<rect x="0.5" y="0.5" width="37" height="37" rx="4.5" stroke="white"/>
<path fill-rule="evenodd" clip-rule="evenodd" d="M19.0791 11.4231C19.2335 11.0051 19.562 10.8747 19.8129 11.132L26.7462 18.243C26.9039 18.4048 27 18.6913 27 19C27 19.3087 26.9039 19.5952 26.7462 19.757L19.8129 26.868C19.562 27.1253 19.2335 26.9949 19.0791 26.5769C18.9247 26.1588 19.003 25.6113 19.2538 25.354L24.5824 19.8889H11.5333C11.2388 19.8889 11 19.4909 11 19C11 18.5091 11.2388 18.1111 11.5333 18.1111H24.5824L19.2538 12.646C19.003 12.3887 18.9247 11.8412 19.0791 11.4231Z" fill="white"/>
</svg>
