<svg width="38" height="38" viewBox="0 0 38 38" fill="none" xmlns="http://www.w3.org/2000/svg">
<rect x="-0.5" y="0.5" width="37" height="37" rx="4.5" transform="matrix(-1 0 0 1 37 0)" stroke="white"/>
<path fill-rule="evenodd" clip-rule="evenodd" d="M18.9209 11.4231C18.7665 11.0051 18.438 10.8747 18.1871 11.132L11.2538 18.243C11.0961 18.4048 11 18.6913 11 19C11 19.3087 11.0961 19.5952 11.2538 19.757L18.1871 26.868C18.438 27.1253 18.7665 26.9949 18.9209 26.5769C19.0753 26.1588 18.997 25.6113 18.7462 25.354L13.4176 19.8889H26.4667C26.7612 19.8889 27 19.4909 27 19C27 18.5091 26.7612 18.1111 26.4667 18.1111H13.4176L18.7462 12.646C18.997 12.3887 19.0753 11.8412 18.9209 11.4231Z" fill="white"/>
</svg>
