<svg width="561" height="610" viewBox="0 0 561 610" fill="none" xmlns="http://www.w3.org/2000/svg">
<g clip-path="url(#clip0_44_3298)">
<path d="M416.547 215.761C417.411 218.914 418.72 222.202 419.927 225.236C420.081 225.623 420.234 226.006 420.383 226.384C421.719 229.757 422.81 232.687 422.975 234.749C422.997 235.168 423.288 235.374 423.384 235.426L423.414 235.443L423.446 235.455C423.547 235.493 423.677 235.506 423.806 235.487C423.952 235.466 424.127 235.399 424.274 235.243C424.953 234.552 425.943 233.857 427.163 233.137C428.382 232.418 429.804 231.69 431.33 230.928C431.666 230.76 432.007 230.591 432.351 230.419C435.122 229.041 438.133 227.544 440.726 225.818C447.082 221.605 450.222 214.157 447.101 208.392L447.101 208.391C444.099 202.861 437.449 202.484 433.729 206.386C433.583 203.844 432.44 201.517 430.702 199.916C428.617 197.994 425.666 197.11 422.575 198.167L422.574 198.167C419.61 199.185 417.566 201.676 416.536 204.842C415.508 208.005 415.477 211.876 416.547 215.761ZM416.547 215.761L417.029 215.629M416.547 215.761C416.547 215.761 416.547 215.762 416.547 215.762L417.029 215.629M417.029 215.629C414.933 208.017 417.177 200.55 422.737 198.64M417.029 215.629C417.885 218.753 419.183 222.013 420.392 225.05C421.908 228.861 423.285 232.32 423.474 234.717C423.482 234.897 423.605 234.978 423.623 234.987L422.737 198.64M422.737 198.64C428.237 196.759 433.246 201.412 433.245 206.939L422.737 198.64ZM454.59 443.897L454.588 443.899C454.439 444.05 454.263 444.12 454.107 444.139C454.032 444.148 453.959 444.146 453.893 444.135C453.865 444.13 453.803 444.119 453.733 444.087C453.707 444.076 453.686 444.064 453.672 444.056C453.637 444.036 453.609 444.014 453.587 443.996C453.541 443.958 453.497 443.912 453.458 443.858C453.377 443.748 453.305 443.595 453.287 443.403L453.287 443.397C453.124 441.34 452.033 438.409 450.698 435.032C450.55 434.656 450.399 434.276 450.246 433.892C449.04 430.855 447.731 427.562 446.866 424.403M454.59 443.897L453.047 407.291L452.885 406.818C449.925 407.831 447.883 410.32 446.855 413.484C445.827 416.647 445.796 420.517 446.866 424.403M454.59 443.897C455.267 443.206 456.256 442.509 457.478 441.786M454.59 443.897L457.478 441.786M446.866 424.403L447.348 424.271L446.866 424.403C446.866 424.403 446.866 424.403 446.866 424.403ZM457.478 441.786C458.696 441.067 460.118 440.338 461.642 439.575M457.478 441.786L461.642 439.575M461.642 439.575C461.988 439.403 462.339 439.228 462.694 439.051M461.642 439.575L462.694 439.051M462.694 439.051C465.455 437.677 468.454 436.185 471.037 434.47L462.694 439.051ZM426.504 172.698L426.504 172.698L550.388 224.404C550.388 224.404 550.388 224.404 550.388 224.404C558.486 227.786 562.58 237.71 559.446 246.585L559.917 246.751L559.446 246.585L485.557 455.911C485.557 455.911 485.557 455.911 485.557 455.911C482.421 464.77 473.31 469.141 465.238 465.768L465.045 466.229L465.237 465.768L341.353 414.063C341.353 414.063 341.353 414.063 341.353 414.063C333.255 410.68 329.16 400.756 332.295 391.883L332.295 391.883L406.192 182.555C409.321 173.698 418.431 169.326 426.504 172.698ZM433.743 207.12C437.162 203.041 443.735 203.239 446.661 208.63C449.611 214.079 446.685 221.268 440.449 225.402L433.743 207.12ZM463.564 415.589C463.564 415.89 463.549 416.192 463.519 416.497C463.689 416.241 463.871 415.999 464.062 415.77C464.067 415.523 464.062 415.278 464.048 415.035C463.88 415.211 463.719 415.396 463.564 415.589ZM433.937 355.99L433.937 355.99C435.493 354.406 437.734 352.834 440.448 351.229C443.158 349.627 446.312 348.008 449.677 346.322C450.455 345.932 451.244 345.539 452.042 345.142C458.128 342.109 464.688 338.841 470.342 335.095C484.238 325.889 490.914 309.768 484.224 297.408L484.224 297.407C477.528 285.064 462.373 284.724 454.697 294.275C454.792 288.229 452.234 282.613 448.162 278.861C443.701 274.75 437.411 272.87 430.818 275.129L430.818 275.129C424.507 277.297 420.112 282.618 417.883 289.476C415.655 296.332 415.577 304.756 417.906 313.235L417.906 313.236C419.801 320.119 422.659 327.305 425.313 333.978C425.666 334.865 426.015 335.742 426.358 336.609C429.295 344.035 431.744 350.607 432.106 355.272L432.106 355.277C432.133 355.588 432.266 355.825 432.39 355.981C432.452 356.059 432.514 356.12 432.566 356.165C432.593 356.187 432.618 356.207 432.642 356.224C432.647 356.228 432.701 356.267 432.768 356.294L432.798 356.306L432.829 356.314C432.896 356.331 433.054 356.356 433.247 356.331C433.449 356.305 433.712 356.22 433.937 355.99Z" fill="white" stroke="white"/>
<path d="M147.405 402.545L147.405 402.547C148.971 416.06 159.51 426.266 172.059 426.266C173.05 426.266 174.092 426.22 175.09 426.083C175.091 426.083 175.092 426.082 175.093 426.082L202.207 422.474L95.7586 466.859C87.6825 470.223 78.5505 465.893 75.4212 456.993L75.421 456.993L1.5501 247.721C-1.57761 238.8 2.51888 228.895 10.6163 225.512L122.155 178.941C122.175 179.294 122.211 179.653 122.261 180.027C122.261 180.028 122.261 180.03 122.262 180.032L135.615 298.257C135.138 297.902 134.657 297.563 134.159 297.237C129.528 294.126 124.068 291.196 118.848 288.394C117.7 287.778 116.563 287.168 115.45 286.564C109.238 283.193 103.784 280.02 100.863 276.911C100.647 276.676 100.448 276.502 100.246 276.401C100.014 276.285 99.7964 276.273 99.5954 276.328L99.577 276.333L99.5589 276.339C99.2965 276.433 99.1581 276.66 99.0852 276.849C99.008 277.049 98.9637 277.306 98.9458 277.619L98.9457 277.621C98.7061 282.081 96.604 288.432 94.0579 295.462C93.5795 296.782 93.086 298.126 92.5875 299.483C90.4466 305.31 88.2139 311.388 86.6927 316.999L86.6924 317C84.9736 323.401 84.6487 330.336 86.219 336.251C87.7917 342.175 91.2792 347.11 97.1936 349.393C104.719 352.307 114 348.229 118.007 340.771C120.607 349.868 122.388 358.863 122.498 366.994L122.508 367.734L123.191 367.449L138.136 361.216L138.747 360.961L138.335 360.443C133.429 354.269 129.169 346.248 125.509 337.558C130.185 339.212 135.549 338.424 139.857 335.786L147.405 402.545ZM38.6548 267.161C39.5267 270.355 40.1001 273.47 40.1365 276.33L40.1459 277.075L40.8313 276.785L46.472 274.397L47.0802 274.14L46.6674 273.624C44.953 271.483 43.449 268.7 42.1322 265.662C45.0316 266.328 48.3748 264.855 49.7332 262.06C50.9084 259.719 50.7371 257.287 49.7752 255.118C48.8171 252.958 47.0722 251.046 45.0589 249.68L45.0545 249.677C43.3107 248.521 41.2581 247.424 39.3067 246.381C38.8432 246.134 38.3855 245.889 37.939 245.647C35.5766 244.369 33.5678 243.193 32.5196 242.071C32.4331 241.977 32.3308 241.875 32.2189 241.807C32.1625 241.773 32.0596 241.721 31.9252 241.714C31.7631 241.707 31.6088 241.769 31.4985 241.886L31.4985 241.886L31.4941 241.891C31.5441 241.837 31.4126 241.963 31.3502 242.072C31.2728 242.208 31.2403 242.362 31.2383 242.529C31.1409 244.162 30.3712 246.512 29.4134 249.173C29.2334 249.673 29.0473 250.183 28.859 250.699C28.0559 252.898 27.213 255.207 26.634 257.34L26.6339 257.341C25.9658 259.81 25.8327 262.484 26.4435 264.779C27.0567 267.083 28.4324 269.034 30.7862 269.944C33.5875 271.06 36.926 269.716 38.6548 267.161Z" fill="white" stroke="white"/>
<path d="M323.771 388.37L323.771 388.372C321.549 394.754 321.573 401.627 323.843 407.893L255.309 398.727L255.309 398.727C246.677 397.579 240.531 389.03 241.599 379.587L241.102 379.531L241.599 379.587L266.7 157.054C267.774 147.628 275.673 140.979 284.254 142.135L284.255 142.135L415.957 159.709C415.957 159.709 415.958 159.709 415.958 159.709C418.035 160.003 419.942 160.692 421.658 161.726C421.405 161.717 421.153 161.714 420.906 161.714C410.64 161.714 401.328 168.714 397.644 179.053L397.644 179.054L362.567 278.402C359.164 273.259 354.636 264.933 350.661 256.561C346.461 247.716 342.913 238.892 341.949 233.752L341.947 233.745L341.946 233.737C341.869 233.387 341.788 233.062 341.665 232.817C341.53 232.545 341.304 232.295 340.927 232.241C340.546 232.183 340.256 232.39 340.072 232.606C339.892 232.817 339.747 233.106 339.621 233.425C337.25 238.765 330.727 247.732 323.826 256.028C320.38 260.17 316.853 264.129 313.723 267.365C310.585 270.609 307.873 273.099 306.052 274.326L306.041 274.334L306.03 274.342C305.896 274.443 305.771 274.583 305.68 274.712C305.632 274.778 305.586 274.854 305.549 274.933C305.524 274.984 305.489 275.069 305.474 275.171C305.446 275.299 305.465 275.411 305.473 275.457C305.49 275.545 305.518 275.632 305.55 275.709C305.611 275.859 305.709 276.034 305.837 276.174C307.325 277.846 309.4 280.975 311.721 284.945C314.038 288.907 316.582 293.674 319.007 298.598C323.865 308.463 328.208 318.881 329.309 324.681C329.371 325.032 329.442 325.359 329.562 325.609C329.694 325.888 329.922 326.138 330.299 326.193C330.685 326.252 330.976 326.044 331.164 325.821C331.346 325.606 331.5 325.306 331.644 324.97C333.567 320.62 338.282 313.83 343.729 306.947C348.589 300.806 354 294.629 358.458 290.107L323.771 388.37ZM294.6 205.344L294.6 205.344L294.603 205.338C295.606 203.089 298.397 199.261 301.374 195.693C302.855 193.918 304.37 192.222 305.712 190.837C307.062 189.443 308.211 188.393 308.966 187.884L309.015 187.851L309.055 187.807C309.06 187.802 309.067 187.794 309.075 187.786C309.106 187.753 309.154 187.702 309.189 187.659C309.213 187.629 309.247 187.584 309.277 187.529C309.304 187.479 309.353 187.377 309.353 187.244C309.353 187.131 309.327 187.012 309.282 186.906C309.249 186.828 309.184 186.706 309.064 186.609C308.442 185.901 307.574 184.592 306.595 182.915C305.602 181.215 304.513 179.168 303.474 177.054C301.391 172.815 299.547 168.374 299.073 165.931C299.049 165.758 299.009 165.577 298.932 165.425C298.863 165.29 298.706 165.073 298.424 165.032C298.087 164.952 297.847 165.191 297.763 165.296C297.66 165.427 297.589 165.59 297.539 165.745C296.525 167.997 293.744 171.808 290.779 175.362C289.297 177.138 287.783 178.834 286.441 180.218C285.091 181.612 283.942 182.663 283.188 183.172L283.139 183.205L283.099 183.248C283.093 183.255 283.085 183.263 283.076 183.272C283.045 183.306 283.001 183.353 282.969 183.392C282.946 183.419 282.914 183.46 282.884 183.51C282.862 183.548 282.802 183.656 282.802 183.803C282.802 183.915 282.826 184.035 282.87 184.143C282.902 184.223 282.966 184.348 283.088 184.447C283.71 185.154 284.578 186.463 285.558 188.141C286.551 189.841 287.64 191.888 288.679 194.002C290.764 198.245 292.609 202.689 293.082 205.131C293.109 205.298 293.149 205.477 293.222 205.626C293.289 205.761 293.447 205.988 293.741 206.025C293.874 206.052 294.014 206.034 294.14 205.968C294.27 205.9 294.35 205.799 294.394 205.737C294.468 205.632 294.534 205.488 294.584 205.379C294.589 205.367 294.595 205.355 294.6 205.344Z" fill="white" stroke="white"/>
<path d="M247.446 406.488L173.991 416.307C165.41 417.454 157.545 410.808 156.478 401.37L131.342 178.847L131.342 178.846C130.268 169.37 136.454 160.855 145.037 159.707L261.696 144.133C259.551 147.538 258.116 151.52 257.63 155.885L245.54 263.152C244.366 263.06 243.186 263.08 241.971 263.244L241.971 263.244L241.958 263.246C241.277 263.356 240.607 263.489 239.952 263.653C241.675 259.994 242.466 255.781 241.963 251.405C240.686 239.815 230.879 231.448 220.125 232.904C209.382 234.314 201.758 244.97 203.085 256.554C203.58 260.926 205.288 264.853 207.772 267.95C207.096 267.962 206.412 268.009 205.713 268.098L205.709 268.099C194.967 269.555 187.343 280.209 188.661 291.792C189.948 303.381 199.711 311.75 210.506 310.292C215.951 309.591 220.615 306.44 223.696 302.027C224.031 310.579 223.654 318.8 222.096 325.987L221.945 326.683L222.651 326.588L238.573 324.463L238.625 324.456L232.526 378.418L232.526 378.42C231.744 385.554 233.512 392.606 237.614 398.279L247.446 406.488ZM247.446 406.488C243.587 404.743 240.237 401.911 237.614 398.279L247.446 406.488ZM238.755 323.312C235.779 316.829 233.614 309.114 232.081 300.92C234.567 303.092 237.557 304.6 240.8 305.218L238.755 323.312ZM172.997 191.61C173.615 190.111 173.866 188.429 173.66 186.709C173.102 181.571 168.781 177.835 163.961 178.452L163.956 178.453C159.141 179.116 155.782 183.849 156.379 188.982C156.552 190.749 157.194 192.325 158.135 193.61C158.03 193.619 157.927 193.629 157.825 193.64L157.763 193.646L157.763 193.645L157.75 193.647C152.925 194.255 149.569 199.041 150.166 204.136C150.723 209.276 155.044 213.002 159.864 212.385L159.87 212.384C162.033 212.084 163.908 210.959 165.25 209.333C165.348 212.709 165.172 215.922 164.548 218.764L164.395 219.457L165.1 219.367L171.966 218.484L172.646 218.397L172.356 217.776C171.128 215.152 170.232 212.073 169.541 208.749C171.236 209.977 173.32 210.572 175.498 210.269C180.279 209.651 183.632 204.913 183.079 199.782L183.078 199.778C182.479 194.647 178.166 190.907 173.344 191.566C173.228 191.578 173.112 191.592 172.997 191.61Z" fill="white" stroke="white"/>
</g>
<g clip-path="url(#clip1_44_3298)">
<path d="M317.848 241.148C317.848 243.983 315.542 246.289 312.7 246.289C309.858 246.289 307.559 243.983 307.559 241.148C307.559 238.306 309.858 236 312.7 236C315.542 236 317.848 238.307 317.848 241.148Z" fill="#434A54"/>
<path d="M338.434 266.687C338.434 280.903 326.917 292.421 312.7 292.421C298.491 292.421 286.974 280.903 286.974 266.687C286.974 252.478 298.491 240.96 312.7 240.96C326.916 240.96 338.434 252.478 338.434 266.687Z" fill="#CCD1D9"/>
<path d="M355.929 439.831C345.685 427.552 341.08 410.954 341.08 410.954C329.592 357.978 337.771 308.379 337.771 308.379C339.618 285.803 348.724 266.876 348.724 266.876L333.286 256.579L322.997 266.875L312.7 256.578L302.411 266.875L292.122 256.578L276.684 266.875C276.684 266.875 285.79 285.802 287.637 308.378C287.637 308.378 296.094 357.977 284.614 410.953C284.614 410.953 280.001 427.552 269.757 439.831C260.365 451.1 262.656 479.577 275.75 483H305.192H320.494H349.944C363.038 479.578 365.322 451.1 355.929 439.831Z" fill="#F5F7FA"/>
<path d="M341.08 410.953C331.718 367.784 335.411 326.854 337.107 313.188H288.33C290.086 326.854 293.968 367.784 284.614 410.953H341.08Z" fill="#E6E9ED"/>
<path d="M359.02 483H266.38C263.538 483 261.239 480.694 261.239 477.852C261.239 475.01 263.538 472.703 266.38 472.703H359.02C361.861 472.703 364.168 475.01 364.168 477.852C364.168 480.694 361.861 483 359.02 483Z" fill="#F5F7FA"/>
<path d="M343.575 416.101H281.825C278.983 416.101 276.684 413.795 276.684 410.953C276.684 408.111 278.983 405.812 281.825 405.812H343.575C346.425 405.812 348.724 408.112 348.724 410.953C348.723 413.795 346.425 416.101 343.575 416.101Z" fill="#CCD1D9"/>
<path d="M338.434 318.328H286.973C284.131 318.328 281.825 316.029 281.825 313.188C281.825 310.347 284.131 308.039 286.973 308.039H338.434C341.275 308.039 343.575 310.346 343.575 313.188C343.575 316.03 341.276 318.328 338.434 318.328Z" fill="#CCD1D9"/>
<path d="M408.023 444.422C407.42 441.452 407.066 438.452 406.892 435.535L430.547 376.543L390.438 353.387L351.256 403.249C348.603 404.584 345.776 405.805 342.844 406.793C328.59 411.571 316.447 437.449 326.758 447.346L380.948 478.636C394.674 482.608 411.009 459.158 408.023 444.422Z" fill="#434A54"/>
<path d="M444.605 372.782L430.547 376.543L390.438 353.387L386.593 339.291L409.75 299.182L467.761 332.673L444.605 372.782Z" fill="#656D78"/>
<path d="M408.582 440.321C407.707 440.321 406.818 440.094 406.011 439.627L348 406.137C345.542 404.712 344.699 401.568 346.116 399.104C347.54 396.647 350.684 395.802 353.148 397.219L411.16 430.718C413.617 432.135 414.461 435.286 413.044 437.743C412.086 439.394 410.36 440.321 408.582 440.321Z" fill="#656D78"/>
<path d="M432.107 312.087L423.197 306.946C423.182 306.976 423.16 306.999 423.145 307.029L414.521 321.969C413.097 324.427 413.941 327.577 416.406 328.995C417.213 329.462 418.102 329.689 418.976 329.689C420.748 329.689 422.481 328.761 423.431 327.11L432.054 312.178C432.077 312.147 432.084 312.117 432.107 312.087Z" fill="#434A54"/>
<path d="M445.675 340.045L454.389 324.954L445.479 319.806L436.765 334.904C435.341 337.361 436.185 340.512 438.643 341.929C439.457 342.396 440.339 342.623 441.213 342.623C442.992 342.623 444.725 341.696 445.675 340.045Z" fill="#434A54"/>
<path d="M389.88 483C389.005 483 388.123 482.774 387.309 482.307L320.464 443.713C318.006 442.296 317.163 439.145 318.58 436.687C320.004 434.223 323.147 433.378 325.612 434.803L392.458 473.397C394.915 474.815 395.76 477.965 394.343 480.423C393.385 482.073 391.659 483 389.88 483Z" fill="#434A54"/>
</g>
<defs>
<clipPath id="clip0_44_3298">
<rect width="561" height="610" fill="white"/>
</clipPath>
<clipPath id="clip1_44_3298">
<rect width="247" height="247" fill="white" transform="translate(241 236)"/>
</clipPath>
</defs>
</svg>
