<?xml version="1.0" encoding="iso-8859-1"?>
<!-- Uploaded to: SVG Repo, www.svgrepo.com, Generator: SVG Repo Mixer Tools -->
<!DOCTYPE svg PUBLIC "-//W3C//DTD SVG 1.1//EN" "http://www.w3.org/Graphics/SVG/1.1/DTD/svg11.dtd">
<svg fill="#000000" height="800px" width="800px" version="1.1" id="Capa_1" xmlns="http://www.w3.org/2000/svg" xmlns:xlink="http://www.w3.org/1999/xlink" 
	 viewBox="0 0 467.924 467.924" xml:space="preserve">
<path d="M426.564,60.543c-52.759-52.76-137.223-54.966-192.632-6.61c-25.717-22.479-58.307-34.75-92.785-34.75
	c-37.72,0-73.182,14.689-99.854,41.361c-55.059,55.06-55.058,144.647,0.001,199.706l185.563,185.564
	c1.876,1.875,4.419,2.929,7.071,2.929s5.195-1.053,7.071-2.929l185.563-185.564c26.672-26.672,41.36-62.133,41.36-99.853
	S453.236,87.215,426.564,60.543z M412.421,74.685c22.895,22.894,35.503,53.334,35.503,85.711c0,16.393-3.238,32.287-9.401,46.959
	H328.719c-5.522,0-10,4.477-10,10v3.03c0,12.148,3.355,23.535,9.695,32.915c2.293,3.406,3.292,7.401,2.893,11.533
	c-0.801,8.127-7.261,14.676-15.35,15.572c-5.078,0.556-9.936-0.984-13.684-4.343c-3.695-3.312-5.814-8.056-5.814-13.017
	c0-3.301,0.932-6.519,2.687-9.297c6.531-10.305,9.983-21.842,9.983-33.363v-3.03c0-5.523-4.478-10-10-10h-55.2v-44.563
	c5.396,0.984,10.725,3.094,15.697,6.246c5.99,3.786,12.903,5.787,19.993,5.787c10.639,0,20.812-4.544,27.911-12.467
	c7.099-7.92,10.498-18.569,9.328-29.223c-1.93-17.433-16.014-31.338-33.509-33.064c-8.698-0.839-17.45,1.365-24.66,6.219
	c-4.296,2.903-9.312,4.839-14.761,5.723V71.862c22.531-21.101,51.764-32.68,82.782-32.68
	C359.088,39.182,389.528,51.791,412.421,74.685z M55.437,74.685c22.894-22.894,53.333-35.503,85.71-35.503
	c31.018,0,60.252,11.578,82.782,32.68v50.703c0,5.523,4.478,10,10,10h3.03c12.148,0,23.535-3.356,32.915-9.695
	c3.405-2.293,7.401-3.292,11.533-2.894c8.127,0.802,14.676,7.261,15.571,15.351c0.558,5.077-0.984,9.937-4.342,13.684
	c-3.312,3.695-8.057,5.814-13.018,5.814c-3.302,0-6.521-0.931-9.297-2.687c-10.306-6.531-21.843-9.983-33.363-9.983h-3.03
	c-5.522,0-10,4.477-10,10v55.2h-44.101c0.984-5.39,3.093-10.716,6.235-15.684c3.792-5.978,5.796-12.896,5.796-20.006
	c0-10.638-4.544-20.811-12.467-27.911c-7.919-7.098-18.57-10.499-29.223-9.328c-17.441,1.93-31.342,16.017-33.053,33.493
	c-0.854,8.709,1.353,17.471,6.217,24.676c2.903,4.296,4.839,9.312,5.723,14.761h-99.65C10.961,163.303,19.632,110.49,55.437,74.685z
	 M40.094,227.355h99.515c5.522,0,10-4.477,10-10v-3.03c0-12.148-3.355-23.535-9.702-32.926c-2.294-3.398-3.292-7.384-2.886-11.53
	c0.795-8.123,7.25-14.669,15.34-15.564c5.076-0.557,9.936,0.984,13.684,4.343c3.695,3.312,5.814,8.056,5.814,13.017
	c0,3.311-0.929,6.525-2.691,9.304c-6.528,10.32-9.979,21.854-9.979,33.356v3.03c0,5.523,4.478,10,10,10h54.739v44.101
	c-5.39-0.984-10.715-3.093-15.683-6.235c-5.976-3.792-12.895-5.796-20.007-5.796c-10.639,0-20.812,4.544-27.912,12.467
	c-7.098,7.92-10.497,18.569-9.327,29.223c1.93,17.441,16.016,31.342,33.493,33.053c8.705,0.852,17.471-1.353,24.676-6.217
	c4.295-2.903,9.312-4.838,14.76-5.723V414.6L55.436,246.107C49.601,240.271,44.489,233.983,40.094,227.355z M412.421,246.107
	L243.929,414.6V311.675c0-5.523-4.478-10-10-10H230.9c-12.149,0-23.536,3.356-32.926,9.702c-3.398,2.295-7.392,3.292-11.53,2.885
	c-8.123-0.795-14.669-7.25-15.563-15.34c-0.558-5.077,0.984-9.937,4.342-13.684c3.312-3.695,8.057-5.814,13.018-5.814
	c3.312,0,6.524,0.928,9.304,2.691c10.319,6.528,21.854,9.979,33.356,9.979h3.029c5.522,0,10-4.477,10-10v-54.74h44.563
	c-0.984,5.397-3.095,10.725-6.246,15.698c-3.786,5.99-5.787,12.904-5.787,19.992c0,10.638,4.544,20.811,12.467,27.911
	c6.894,6.178,15.854,9.555,25.086,9.555c1.374,0,2.757-0.075,4.137-0.227c17.434-1.929,31.338-16.013,33.063-33.507
	c0.841-8.698-1.363-17.451-6.218-24.661c-2.903-4.296-4.839-9.312-5.723-14.761h88.521
	C423.353,234.028,418.218,240.31,412.421,246.107z"/>
</svg>