<svg width="60" height="56" viewBox="0 0 60 56" fill="none" xmlns="http://www.w3.org/2000/svg">
<path d="M52.4221 44.1801C52.4221 43.9001 52.5061 43.6621 52.6741 43.4661C52.8421 43.2608 53.0941 43.1581 53.4301 43.1581C53.7475 43.1581 53.9901 43.2468 54.1581 43.4241C54.3355 43.6015 54.4335 43.8161 54.4521 44.0681H59.4641C59.4641 44.4695 59.3615 44.7588 59.1561 44.9361C58.9508 45.1041 58.7268 45.1881 58.4841 45.1881H54.6901V46.5881C54.6901 48.2775 54.2561 49.5421 53.3881 50.3821C52.5201 51.2128 51.1901 51.6281 49.3981 51.6281C49.0528 51.6281 48.7868 51.5721 48.6001 51.4601C48.4228 51.3481 48.3015 51.1988 48.2361 51.0121C48.1708 50.8161 48.1381 50.6015 48.1381 50.3681V46.9941C48.1381 45.9395 48.3761 45.1648 48.8521 44.6701C49.3375 44.1755 50.1588 43.9281 51.3161 43.9281C51.5775 43.9281 51.7781 44.0028 51.9181 44.1521C52.0675 44.3015 52.1421 44.5535 52.1421 44.9081V45.0481H51.3161C50.8775 45.0481 50.5135 45.0995 50.2241 45.2021C49.9441 45.3048 49.7341 45.4961 49.5941 45.7761C49.4635 46.0468 49.3981 46.4528 49.3981 46.9941V50.5081C50.3315 50.5081 51.0921 50.3915 51.6801 50.1581C52.2775 49.9155 52.7161 49.5095 52.9961 48.9401C53.2855 48.3615 53.4301 47.5775 53.4301 46.5881V45.1881C53.0941 45.1881 52.8421 45.0901 52.6741 44.8941C52.5061 44.6981 52.4221 44.4601 52.4221 44.1801Z" fill="black"/>
<path d="M38.3786 51.6281H37.8746C37.1746 51.6281 36.8246 51.2035 36.8246 50.3541C36.8246 50.1021 36.8479 49.8595 36.8946 49.6261C36.9506 49.3928 37.0253 49.1688 37.1186 48.9541V41.2681C37.1186 41.1935 37.1466 41.1281 37.2026 41.0721C37.2586 41.0161 37.3239 40.9881 37.3986 40.9881H38.0986C38.1733 40.9881 38.2386 41.0161 38.2946 41.0721C38.3506 41.1281 38.3786 41.1935 38.3786 41.2681V46.8681C38.7239 46.2521 39.1206 45.7155 39.5686 45.2581C40.0259 44.7915 40.4973 44.4321 40.9826 44.1801C41.4773 43.9188 41.9486 43.7881 42.3966 43.7881C42.8913 43.7881 43.2226 43.9095 43.3906 44.1521C43.5679 44.3948 43.6566 44.6935 43.6566 45.0481V50.6481H48.1366C48.1366 51.0495 48.0339 51.3155 47.8286 51.4461C47.6233 51.5675 47.3993 51.6281 47.1566 51.6281H43.2366C43.0313 51.6281 42.8399 51.5768 42.6626 51.4741C42.4853 51.3621 42.3966 51.1335 42.3966 50.7881V44.9081C42.1353 44.9081 41.8273 44.9875 41.4726 45.1461C41.1273 45.2955 40.7726 45.5288 40.4086 45.8461C40.0446 46.1541 39.7086 46.5415 39.4006 47.0081C39.1019 47.4748 38.8546 48.0208 38.6586 48.6461C38.4719 49.2621 38.3786 49.9621 38.3786 50.7461V51.6281Z" fill="black"/>
<path d="M33.6129 45.1881H32.2129V50.6481H37.1129C37.1129 51.0495 37.0102 51.3155 36.8049 51.4461C36.5996 51.5675 36.3756 51.6281 36.1329 51.6281H31.7929C31.5876 51.6281 31.3916 51.5768 31.2049 51.4741C31.0276 51.3621 30.9389 51.1335 30.9389 50.7881V45.1881H29.1189C29.1189 44.7775 29.2216 44.4881 29.4269 44.3201C29.6322 44.1521 29.8562 44.0681 30.0989 44.0681H30.9389V42.1081C30.9389 42.0335 30.9669 41.9681 31.0229 41.9121C31.0789 41.8561 31.1442 41.8281 31.2189 41.8281H31.9189C31.9936 41.8281 32.0589 41.8561 32.1149 41.9121C32.1709 41.9681 32.2036 42.0335 32.2129 42.1081V44.0681H34.5929C34.5929 44.4695 34.4902 44.7588 34.2849 44.9361C34.0796 45.1041 33.8556 45.1881 33.6129 45.1881Z" fill="black"/>
<path d="M21.7708 49.6961L21.1128 51.4601C21.0661 51.5721 20.9868 51.6281 20.8748 51.6281H20.0908C19.9601 51.6281 19.8948 51.5675 19.8948 51.4461C19.8948 51.3808 19.9134 51.3061 19.9508 51.2221L20.7068 49.2621C20.8001 49.0288 20.8561 48.7908 20.8748 48.5481C20.9028 48.2961 20.9168 48.0441 20.9168 47.7921V45.1881C20.5808 45.1881 20.3288 45.0901 20.1608 44.8941C19.9928 44.6981 19.9088 44.4601 19.9088 44.1801C19.9088 43.9001 19.9928 43.6621 20.1608 43.4661C20.3288 43.2608 20.5808 43.1581 20.9168 43.1581C21.2341 43.1581 21.4768 43.2468 21.6448 43.4241C21.8221 43.6015 21.9201 43.8161 21.9388 44.0681H23.7588C24.4214 44.0681 24.9394 44.1148 25.3128 44.2081C25.6954 44.3015 25.9801 44.4555 26.1668 44.6701C26.3534 44.8848 26.4701 45.1741 26.5168 45.5381C26.5728 45.8928 26.6008 46.3361 26.6008 46.8681V50.6481H30.9408C30.9408 51.0495 30.8381 51.3155 30.6328 51.4461C30.4274 51.5675 30.2034 51.6281 29.9608 51.6281H26.1948C25.9894 51.6281 25.7934 51.5768 25.6068 51.4741C25.4294 51.3621 25.3408 51.1335 25.3408 50.7881V46.8681C25.3408 46.4201 25.3081 46.0748 25.2428 45.8321C25.1868 45.5895 25.0468 45.4215 24.8228 45.3281C24.5988 45.2348 24.2441 45.1881 23.7588 45.1881H22.1068V47.7921C22.1068 48.1095 22.0788 48.4315 22.0228 48.7581C21.9668 49.0848 21.8828 49.3975 21.7708 49.6961Z" fill="black"/>
<path d="M12.7174 48.2681V48.8281C12.7174 49.2388 12.7314 49.5655 12.7594 49.8081C12.7967 50.0508 12.876 50.2328 12.9974 50.3541C13.128 50.4755 13.3287 50.5548 13.5994 50.5921C13.87 50.6295 14.2387 50.6481 14.7054 50.6481H20.9494C20.9494 51.0495 20.8467 51.3155 20.6414 51.4461C20.436 51.5675 20.212 51.6281 19.9694 51.6281H14.7054C13.94 51.6281 13.338 51.5908 12.8994 51.5161C12.4607 51.4321 12.134 51.2875 11.9194 51.0821C11.714 50.8768 11.5834 50.5921 11.5274 50.2281C11.4714 49.8641 11.4434 49.3975 11.4434 48.8281V48.2541C11.4434 47.4515 11.4994 46.7748 11.6114 46.2241C11.7234 45.6641 11.952 45.2161 12.2974 44.8801C12.6427 44.5441 13.156 44.3015 13.8374 44.1521C14.528 44.0028 15.4474 43.9281 16.5954 43.9281C17.09 43.9281 17.4214 44.0495 17.5894 44.2921C17.7667 44.5348 17.8554 44.8288 17.8554 45.1741C17.8554 46.1355 17.7294 46.8821 17.4774 47.4141C17.2347 47.9461 16.852 48.3195 16.3294 48.5341C15.8067 48.7395 15.1207 48.8421 14.2714 48.8421C14.0194 48.8421 13.8374 48.7955 13.7254 48.7021C13.6227 48.5995 13.5714 48.4035 13.5714 48.1141V47.8201L14.6774 47.7781C15.0227 47.7595 15.3167 47.7221 15.5594 47.6661C15.802 47.6101 15.998 47.4935 16.1474 47.3161C16.306 47.1388 16.418 46.8728 16.4834 46.5181C16.558 46.1541 16.5954 45.6641 16.5954 45.0481C15.746 45.0481 15.0647 45.0855 14.5514 45.1601C14.038 45.2255 13.646 45.3655 13.3754 45.5801C13.114 45.7948 12.9367 46.1168 12.8434 46.5461C12.7594 46.9755 12.7174 47.5495 12.7174 48.2681Z" fill="black"/>
<path d="M0.983828 51.0961V44.3481C0.983828 44.2735 1.01183 44.2081 1.06783 44.1521C1.12383 44.0961 1.18916 44.0681 1.26383 44.0681H1.94983C2.02449 44.0681 2.08983 44.0961 2.14583 44.1521C2.21116 44.2081 2.24383 44.2735 2.24383 44.3481V46.8821C2.59849 46.2568 3.00449 45.7155 3.46183 45.2581C3.92849 44.7915 4.41383 44.4321 4.91783 44.1801C5.43116 43.9188 5.92583 43.7881 6.40183 43.7881C6.89649 43.7881 7.22783 43.9095 7.39583 44.1521C7.57316 44.3948 7.66183 44.6935 7.66183 45.0481V48.5621C7.66183 48.9541 7.58716 49.3368 7.43783 49.7101C7.28849 50.0835 7.00383 50.3961 6.58383 50.6481H12.0018C12.0018 51.0495 11.8992 51.3155 11.6938 51.4461C11.4885 51.5675 11.2645 51.6281 11.0218 51.6281H3.95183C3.74649 51.6281 3.55516 51.5768 3.37783 51.4741C3.20049 51.3621 3.11183 51.1335 3.11183 50.7881V50.6481H4.38583C4.74983 50.6481 5.05783 50.5781 5.30983 50.4381C5.57116 50.2981 5.78116 50.1208 5.93983 49.9061C6.09849 49.6821 6.21516 49.4535 6.28983 49.2201C6.36449 48.9775 6.40183 48.7581 6.40183 48.5621V44.9081C6.14049 44.9081 5.82783 44.9875 5.46383 45.1461C5.10916 45.2955 4.74049 45.5288 4.35783 45.8461C3.98449 46.1541 3.63916 46.5415 3.32183 47.0081C3.00449 47.4748 2.74316 48.0208 2.53783 48.6461C2.34183 49.2621 2.24383 49.9621 2.24383 50.7461V55.8281H2.00583C1.49249 55.8281 1.11916 55.7395 0.885828 55.5621C0.652494 55.3848 0.535828 55.0768 0.535828 54.6381C0.535828 54.1435 0.577828 53.5835 0.661828 52.9581C0.755161 52.3421 0.862494 51.7215 0.983828 51.0961Z" fill="black"/>
<path fill-rule="evenodd" clip-rule="evenodd" d="M16.3238 0.171997L25.5067 6.11526L32.2711 1.92761L34.3766 5.32863L25.4591 10.8492L20.3238 7.52552V30.9275L25.4104 27.5963L34.314 32.6698L32.3336 36.1452L25.5554 32.2828L16.3238 38.3287V0.171997Z" fill="black"/>
</svg>
