<svg width="59" height="56" viewBox="0 0 59 56" fill="none" xmlns="http://www.w3.org/2000/svg">
<path d="M51.8863 44.0081C51.8863 43.7281 51.9703 43.4901 52.1383 43.2941C52.3063 43.0888 52.5583 42.9861 52.8943 42.9861C53.2116 42.9861 53.4543 43.0748 53.6223 43.2521C53.7996 43.4295 53.8976 43.6441 53.9163 43.8961H58.9283C58.9283 44.2975 58.8256 44.5868 58.6203 44.7641C58.415 44.9321 58.191 45.0161 57.9483 45.0161H54.1543V46.4161C54.1543 48.1055 53.7203 49.3701 52.8523 50.2101C51.9843 51.0408 50.6543 51.4561 48.8623 51.4561C48.517 51.4561 48.251 51.4001 48.0643 51.2881C47.887 51.1761 47.7656 51.0268 47.7003 50.8401C47.635 50.6441 47.6023 50.4295 47.6023 50.1961V46.8221C47.6023 45.7675 47.8403 44.9928 48.3163 44.4981C48.8016 44.0035 49.623 43.7561 50.7803 43.7561C51.0416 43.7561 51.2423 43.8308 51.3823 43.9801C51.5316 44.1295 51.6063 44.3815 51.6063 44.7361V44.8761H50.7803C50.3416 44.8761 49.9776 44.9275 49.6883 45.0301C49.4083 45.1328 49.1983 45.3241 49.0583 45.6041C48.9276 45.8748 48.8623 46.2808 48.8623 46.8221V50.3361C49.7956 50.3361 50.5563 50.2195 51.1443 49.9861C51.7416 49.7435 52.1803 49.3375 52.4603 48.7681C52.7496 48.1895 52.8943 47.4055 52.8943 46.4161V45.0161C52.5583 45.0161 52.3063 44.9181 52.1383 44.7221C51.9703 44.5261 51.8863 44.2881 51.8863 44.0081Z" fill="white"/>
<path d="M37.8428 51.4561H37.3388C36.6388 51.4561 36.2888 51.0315 36.2888 50.1821C36.2888 49.9301 36.3121 49.6875 36.3588 49.4541C36.4148 49.2208 36.4894 48.9968 36.5828 48.7821V41.0961C36.5828 41.0215 36.6108 40.9561 36.6668 40.9001C36.7228 40.8441 36.7881 40.8161 36.8628 40.8161H37.5628C37.6374 40.8161 37.7028 40.8441 37.7588 40.9001C37.8148 40.9561 37.8428 41.0215 37.8428 41.0961V46.6961C38.1881 46.0801 38.5848 45.5435 39.0328 45.0861C39.4901 44.6195 39.9614 44.2601 40.4468 44.0081C40.9414 43.7468 41.4128 43.6161 41.8608 43.6161C42.3554 43.6161 42.6868 43.7375 42.8548 43.9801C43.0321 44.2228 43.1208 44.5215 43.1208 44.8761V50.4761H47.6008C47.6008 50.8775 47.4981 51.1435 47.2928 51.2741C47.0874 51.3955 46.8634 51.4561 46.6208 51.4561H42.7008C42.4954 51.4561 42.3041 51.4048 42.1268 51.3021C41.9494 51.1901 41.8608 50.9615 41.8608 50.6161V44.7361C41.5994 44.7361 41.2914 44.8155 40.9368 44.9741C40.5914 45.1235 40.2368 45.3568 39.8728 45.6741C39.5088 45.9821 39.1728 46.3695 38.8648 46.8361C38.5661 47.3028 38.3188 47.8488 38.1228 48.4741C37.9361 49.0901 37.8428 49.7901 37.8428 50.5741V51.4561Z" fill="white"/>
<path d="M33.0771 45.0161H31.6771V50.4761H36.5771C36.5771 50.8775 36.4744 51.1435 36.2691 51.2741C36.0637 51.3955 35.8397 51.4561 35.5971 51.4561H31.2571C31.0517 51.4561 30.8557 51.4048 30.6691 51.3021C30.4917 51.1901 30.4031 50.9615 30.4031 50.6161V45.0161H28.5831C28.5831 44.6055 28.6857 44.3161 28.8911 44.1481C29.0964 43.9801 29.3204 43.8961 29.5631 43.8961H30.4031V41.9361C30.4031 41.8615 30.4311 41.7961 30.4871 41.7401C30.5431 41.6841 30.6084 41.6561 30.6831 41.6561H31.3831C31.4577 41.6561 31.5231 41.6841 31.5791 41.7401C31.6351 41.7961 31.6677 41.8615 31.6771 41.9361V43.8961H34.0571C34.0571 44.2975 33.9544 44.5868 33.7491 44.7641C33.5437 44.9321 33.3197 45.0161 33.0771 45.0161Z" fill="white"/>
<path d="M21.2349 49.5241L20.5769 51.2881C20.5303 51.4001 20.4509 51.4561 20.3389 51.4561H19.5549C19.4243 51.4561 19.3589 51.3955 19.3589 51.2741C19.3589 51.2088 19.3776 51.1341 19.4149 51.0501L20.1709 49.0901C20.2643 48.8568 20.3203 48.6188 20.3389 48.3761C20.3669 48.1241 20.3809 47.8721 20.3809 47.6201V45.0161C20.0449 45.0161 19.7929 44.9181 19.6249 44.7221C19.4569 44.5261 19.3729 44.2881 19.3729 44.0081C19.3729 43.7281 19.4569 43.4901 19.6249 43.2941C19.7929 43.0888 20.0449 42.9861 20.3809 42.9861C20.6983 42.9861 20.9409 43.0748 21.1089 43.2521C21.2863 43.4295 21.3843 43.6441 21.4029 43.8961H23.2229C23.8856 43.8961 24.4036 43.9428 24.7769 44.0361C25.1596 44.1295 25.4443 44.2835 25.6309 44.4981C25.8176 44.7128 25.9343 45.0021 25.9809 45.3661C26.0369 45.7208 26.0649 46.1641 26.0649 46.6961V50.4761H30.4049C30.4049 50.8775 30.3023 51.1435 30.0969 51.2741C29.8916 51.3955 29.6676 51.4561 29.4249 51.4561H25.6589C25.4536 51.4561 25.2576 51.4048 25.0709 51.3021C24.8936 51.1901 24.8049 50.9615 24.8049 50.6161V46.6961C24.8049 46.2481 24.7723 45.9028 24.7069 45.6601C24.6509 45.4175 24.5109 45.2495 24.2869 45.1561C24.0629 45.0628 23.7083 45.0161 23.2229 45.0161H21.5709V47.6201C21.5709 47.9375 21.5429 48.2595 21.4869 48.5861C21.4309 48.9128 21.3469 49.2255 21.2349 49.5241Z" fill="white"/>
<path d="M12.1815 48.0961V48.6561C12.1815 49.0668 12.1955 49.3935 12.2235 49.6361C12.2609 49.8788 12.3402 50.0608 12.4615 50.1821C12.5922 50.3035 12.7929 50.3828 13.0635 50.4201C13.3342 50.4575 13.7029 50.4761 14.1695 50.4761H20.4135C20.4135 50.8775 20.3109 51.1435 20.1055 51.2741C19.9002 51.3955 19.6762 51.4561 19.4335 51.4561H14.1695C13.4042 51.4561 12.8022 51.4188 12.3635 51.3441C11.9249 51.2601 11.5982 51.1155 11.3835 50.9101C11.1782 50.7048 11.0475 50.4201 10.9915 50.0561C10.9355 49.6921 10.9075 49.2255 10.9075 48.6561V48.0821C10.9075 47.2795 10.9635 46.6028 11.0755 46.0521C11.1875 45.4921 11.4162 45.0441 11.7615 44.7081C12.1069 44.3721 12.6202 44.1295 13.3015 43.9801C13.9922 43.8308 14.9115 43.7561 16.0595 43.7561C16.5542 43.7561 16.8855 43.8775 17.0535 44.1201C17.2309 44.3628 17.3195 44.6568 17.3195 45.0021C17.3195 45.9635 17.1935 46.7101 16.9415 47.2421C16.6989 47.7741 16.3162 48.1475 15.7935 48.3621C15.2709 48.5675 14.5849 48.6701 13.7355 48.6701C13.4835 48.6701 13.3015 48.6235 13.1895 48.5301C13.0869 48.4275 13.0355 48.2315 13.0355 47.9421V47.6481L14.1415 47.6061C14.4869 47.5875 14.7809 47.5501 15.0235 47.4941C15.2662 47.4381 15.4622 47.3215 15.6115 47.1441C15.7702 46.9668 15.8822 46.7008 15.9475 46.3461C16.0222 45.9821 16.0595 45.4921 16.0595 44.8761C15.2102 44.8761 14.5289 44.9135 14.0155 44.9881C13.5022 45.0535 13.1102 45.1935 12.8395 45.4081C12.5782 45.6228 12.4009 45.9448 12.3075 46.3741C12.2235 46.8035 12.1815 47.3775 12.1815 48.0961Z" fill="white"/>
<path d="M0.448 50.9241V44.1761C0.448 44.1015 0.476 44.0361 0.532 43.9801C0.588 43.9241 0.653333 43.8961 0.728 43.8961H1.414C1.48867 43.8961 1.554 43.9241 1.61 43.9801C1.67533 44.0361 1.708 44.1015 1.708 44.1761V46.7101C2.06267 46.0848 2.46867 45.5435 2.926 45.0861C3.39267 44.6195 3.878 44.2601 4.382 44.0081C4.89533 43.7468 5.39 43.6161 5.866 43.6161C6.36067 43.6161 6.692 43.7375 6.86 43.9801C7.03733 44.2228 7.126 44.5215 7.126 44.8761V48.3901C7.126 48.7821 7.05133 49.1648 6.902 49.5381C6.75267 49.9115 6.468 50.2241 6.048 50.4761H11.466C11.466 50.8775 11.3633 51.1435 11.158 51.2741C10.9527 51.3955 10.7287 51.4561 10.486 51.4561H3.416C3.21067 51.4561 3.01933 51.4048 2.842 51.3021C2.66467 51.1901 2.576 50.9615 2.576 50.6161V50.4761H3.85C4.214 50.4761 4.522 50.4061 4.774 50.2661C5.03533 50.1261 5.24533 49.9488 5.404 49.7341C5.56267 49.5101 5.67933 49.2815 5.754 49.0481C5.82867 48.8055 5.866 48.5861 5.866 48.3901V44.7361C5.60467 44.7361 5.292 44.8155 4.928 44.9741C4.57333 45.1235 4.20467 45.3568 3.822 45.6741C3.44867 45.9821 3.10333 46.3695 2.786 46.8361C2.46867 47.3028 2.20733 47.8488 2.002 48.4741C1.806 49.0901 1.708 49.7901 1.708 50.5741V55.6561H1.47C0.956667 55.6561 0.583333 55.5675 0.35 55.3901C0.116667 55.2128 0 54.9048 0 54.4661C0 53.9715 0.0419999 53.4115 0.126 52.7861C0.219333 52.1701 0.326667 51.5495 0.448 50.9241Z" fill="white"/>
<path fill-rule="evenodd" clip-rule="evenodd" d="M15.788 0L24.9709 5.94326L31.7353 1.75561L33.8407 5.15663L24.9233 10.6772L19.788 7.35353V30.7555L24.8746 27.4243L33.7782 32.4978L31.7978 35.9732L25.0196 32.1108L15.788 38.1567V0Z" fill="white"/>
</svg>
